<svg viewBox="0 0 72 72" xmlns="http://www.w3.org/2000/svg"><path d="m17.2831 58.8244s-2-13.5 10-13.5c3.1918 2.1279 5.9264 3.5984 9 3.5921h-.125c3.0736.0063 4.7081-2.1642 7.9-4.2921 15.5705-.0001 11.5 14.2 11.5 14.2" fill="#92d3f5"/><path d="m35.5372 55.498-3.2389-3.9318-3.239-3.9318h6.4779 6.478l-3.239 3.9318z" fill="#fff"/><path d="m26.5302 44.9199s-5.9003 4.0266-2.161 7.4669h4.5729l-.8335 3.7419 7.8919 1.9525.2903-2.5055-8.3606-10.3636" fill="#61b2e4"/><path d="m67.0867 43.4225-6.95 16.35h-24.99l6.95-16.35z" fill="#d0cfce"/><path d="m67.3033 43.4225-6.95 16.35h-.22-8.77l6.95-16.35h8.77z" fill="#9b9b9a"/><path d="m26 36.5808c-4 0-4-6-4-13s4-14 14-14 14 7 14 14 0 13-4 13" fill="#a57939"/><path d="m24.9365 28.5808c0 9 4.9365 14 11 14 5.9365 0 11.0635-5 11.0635-14 .0245-1.7187-.3164-3.4229-1-5-3-3-7-8-7-8-4 3-7 6-13 7.0005 0-.0005-1.0635.9987-1.0635 5.9995z" fill="#fcea2b"/><path d="m16.917 58.9189c-.4844.001-.9102-.3525-.9863-.8466-.0411-.2696-.9727-6.6328 2.581-10.7754 1.9229-2.2412 4.751-3.377 8.4072-3.377.1973 0 .3907.0586.5547.168 3.1631 2.1084 5.6758 3.418 8.4053 3.4238h.04c.5518 0 .9991.4473 1 .999.001.5518-.4462 1-.998 1.001-.001 0-.001 0-.002 0h-.0029c-.0107-.001-.0254-.001-.0381 0h-.084c-.0146 0-.0302 0-.0449-.001-3.0986-.0419-5.8164-1.4023-9.1269-3.5878-2.8965.0566-5.1104.9541-6.586 2.6689-2.956 3.4365-2.1377 9.1201-2.1289 9.1777.083.545-.292 1.0547-.8379 1.1387-.0507.0078-.1015.0107-.1523.0107z"/><path d="m33.9961 55.2832c-.294 0-.584-.1279-.7813-.375l-7.2646-9.0713c-.3457-.4306-.2764-1.0605.1553-1.4053.4326-.3486 1.0615-.2753 1.4052.1553l7.2647 9.0713c.3457.4307.2764 1.0606-.1553 1.4053-.1846.1484-.4053.2197-.624.2197z"/><path d="m33.0068 57.3555c-.0742 0-.1494-.0078-.2255-.0254l-4.8975-1.127c-.2686-.0615-.499-.2314-.6387-.4697-.1387-.2373-.1738-.5225-.0967-.7861l.458-1.5606h-3.2373c-.2509 0-.4921-.0947-.6767-.2637-1.4043-1.2919-1.6201-2.6455-1.5537-3.5546.2129-2.9268 3.459-5.2227 3.8281-5.4746.4551-.3116 1.0762-.1934 1.3877.2617.3115.455.1953 1.0771-.2598 1.3896-.7832.5381-2.8427 2.3008-2.9619 3.9717-.042.5918.1709 1.1406.6504 1.6699h4.1592c.3154 0 .6113.1485.8008.4004.1884.2529.247.5791.1591.8809l-.5351 1.8242 3.8633.8887c.5381.124.874.6601.75 1.1992-.1065.4619-.5186.7754-.9737.7754z"/><path d="m35.1467 59.7725h24.99l6.95-16.35h-24.99z" style="fill:none;stroke:#000;stroke-linecap:round;stroke-linejoin:round;stroke-miterlimit:10;stroke-width:2"/><path d="m24.1767 59.7725h10.97" style="fill:none;stroke:#000;stroke-linecap:round;stroke-linejoin:round;stroke-miterlimit:10;stroke-width:2"/><path d="m41.9529 27.0468c0 1.1046-.8954 2-2 2s-2-.8954-2-2 .8954-2 2-2c1.1044.0004 1.9996.8956 2 2"/><path d="m33.9529 27.0468c0 1.1046-.8954 2-2 2s-2-.8954-2-2 .8954-2 2-2c1.1044.0004 1.9996.8956 2 2"/><path d="m35.9527 37.0492c-1.2005-.0116-2.3813-.3055-3.4472-.8579-.494-.247-.6943-.8477-.4473-1.3418s.8477-.6943 1.3418-.4473c1.5934.8593 3.5121.8593 5.1055 0 .494-.247 1.0947-.0468 1.3418.4473s.0468 1.0947-.4473 1.3418c-1.0659.5524-2.2468.8463-3.4473.8579z"/><path d="m26 36.5808c-4 0-4-6-4-13s4-14 14-14 14 7 14 14 0 13-4 13" fill="none" stroke="#000" stroke-linecap="round" stroke-linejoin="round" stroke-width="2"/><path d="m24.9365 28.5808c0 9 4.9365 14 11 14 5.9365 0 11.0635-5 11.0635-14 .0245-1.7187-.3164-3.4229-1-5-3-3-7-8-7-8-4 3-7 6-13 7.0005 0-.0005-1.0635.9987-1.0635 5.9995z" fill="none" stroke="#000" stroke-linejoin="round" stroke-width="2"/><path d="m41.4707 32.668h-2.0078c-1.5479 0-2.8828-.9258-3.4815-2.253-.5976 1.3272-1.9335 2.253-3.4804 2.253h-2.0078c-2.1045 0-3.8164-1.7119-3.8164-3.8164v-1.2378h-.6924c-.5528 0-1-.4478-1-1 0-.5523.4472-1 1-1h1.6924c.5527 0 1 .4477 1 1v2.2378c0 1.0019.8144 1.8164 1.8164 1.8164h2.0078c1.001 0 1.8154-.8145 1.8154-1.8164v-1.104c0-.5523.4473-1 1-1h1.3301c.5527 0 1 .4477 1 1v1.104c0 1.0019.8144 1.8164 1.8164 1.8164h2.0078c1.001 0 1.8154-.8145 1.8154-1.8164v-2.2378c0-.5523.4473-1 1-1h1.1573c.5527 0 1 .4477 1 1 0 .5522-.4473 1-1 1h-.1573v1.2378c0 2.1045-1.7119 3.8164-3.8154 3.8164z"/></svg>